%TF.GenerationSoftware,KiCad,Pcbnew,9.0.2*%
%TF.CreationDate,2025-07-05T13:36:24+12:00*%
%TF.ProjectId,SPI-POWER-INJECTOR,5350492d-504f-4574-9552-2d494e4a4543,rev?*%
%TF.SameCoordinates,Original*%
%TF.FileFunction,Copper,L2,Bot*%
%TF.FilePolarity,Positive*%
%FSLAX46Y46*%
G04 Gerber Fmt 4.6, Leading zero omitted, Abs format (unit mm)*
G04 Created by KiCad (PCBNEW 9.0.2) date 2025-07-05 13:36:24*
%MOMM*%
%LPD*%
G01*
G04 APERTURE LIST*
G04 Aperture macros list*
%AMRoundRect*
0 Rectangle with rounded corners*
0 $1 Rounding radius*
0 $2 $3 $4 $5 $6 $7 $8 $9 X,Y pos of 4 corners*
0 Add a 4 corners polygon primitive as box body*
4,1,4,$2,$3,$4,$5,$6,$7,$8,$9,$2,$3,0*
0 Add four circle primitives for the rounded corners*
1,1,$1+$1,$2,$3*
1,1,$1+$1,$4,$5*
1,1,$1+$1,$6,$7*
1,1,$1+$1,$8,$9*
0 Add four rect primitives between the rounded corners*
20,1,$1+$1,$2,$3,$4,$5,0*
20,1,$1+$1,$4,$5,$6,$7,0*
20,1,$1+$1,$6,$7,$8,$9,0*
20,1,$1+$1,$8,$9,$2,$3,0*%
G04 Aperture macros list end*
%TA.AperFunction,ComponentPad*%
%ADD10R,1.700000X1.700000*%
%TD*%
%TA.AperFunction,ComponentPad*%
%ADD11C,1.700000*%
%TD*%
%TA.AperFunction,ComponentPad*%
%ADD12O,2.500000X1.700000*%
%TD*%
%TA.AperFunction,ComponentPad*%
%ADD13R,2.500000X1.700000*%
%TD*%
%TA.AperFunction,ComponentPad*%
%ADD14RoundRect,0.250000X0.600000X0.725000X-0.600000X0.725000X-0.600000X-0.725000X0.600000X-0.725000X0*%
%TD*%
%TA.AperFunction,ComponentPad*%
%ADD15O,1.700000X1.950000*%
%TD*%
%TA.AperFunction,Conductor*%
%ADD16C,0.500000*%
%TD*%
%TA.AperFunction,Conductor*%
%ADD17C,0.200000*%
%TD*%
G04 APERTURE END LIST*
D10*
%TO.P,JP1,1*%
%TO.N,5VOLT*%
X137500000Y-89080000D03*
D11*
%TO.P,JP1,3*%
%TO.N,5VIN*%
X137500000Y-84000000D03*
%TO.P,JP1,2*%
%TO.N,FUSE*%
X137500000Y-86540000D03*
%TD*%
D12*
%TO.P,8/36V-5V_2A,3*%
%TO.N,5VOLT*%
X142292500Y-93917500D03*
%TO.P,8/36V-5V_2A,2*%
%TO.N,GND*%
X142292500Y-96457500D03*
D13*
%TO.P,8/36V-5V_2A,1*%
%TO.N,12VIN*%
X142292500Y-98997500D03*
%TD*%
D14*
%TO.P,POWER IN,1*%
%TO.N,5VIN*%
X150750000Y-84945000D03*
D15*
%TO.P,POWER IN,2*%
%TO.N,12VIN*%
X148250000Y-84945000D03*
%TO.P,POWER IN,3*%
%TO.N,N/C*%
X145750000Y-84945000D03*
%TO.P,POWER IN,4*%
%TO.N,GND*%
X143250000Y-84945000D03*
%TD*%
D16*
%TO.N,5VIN*%
X137500000Y-84000000D02*
X137500000Y-82460000D01*
%TO.N,5VOLT*%
X142292500Y-93917500D02*
X137500000Y-89125000D01*
D17*
X137500000Y-89125000D02*
X137500000Y-89080000D01*
D16*
%TO.N,5VIN*%
X150750000Y-84945000D02*
X150750000Y-82750000D01*
X150460000Y-82460000D02*
X137500000Y-82460000D01*
X150750000Y-82750000D02*
X150460000Y-82460000D01*
D17*
%TO.N,GND*%
X143250000Y-86250000D02*
X143250000Y-84945000D01*
X144000000Y-96457500D02*
X142292500Y-96457500D01*
X144000000Y-96457500D02*
X144000000Y-87000000D01*
X144000000Y-87000000D02*
X143250000Y-86250000D01*
D16*
%TO.N,12VIN*%
X148250000Y-98750000D02*
X148250000Y-94250000D01*
X148002500Y-98997500D02*
X148250000Y-98750000D01*
X148250000Y-84945000D02*
X148250000Y-94250000D01*
X141792500Y-98997500D02*
X148002500Y-98997500D01*
%TD*%
%TA.AperFunction,Conductor*%
%TO.N,GND*%
G36*
X149942539Y-83230185D02*
G01*
X149988294Y-83282989D01*
X149999500Y-83334500D01*
X149999500Y-83389699D01*
X149979815Y-83456738D01*
X149927011Y-83502493D01*
X149914507Y-83507403D01*
X149881962Y-83518188D01*
X149830668Y-83535185D01*
X149830663Y-83535187D01*
X149681342Y-83627289D01*
X149557289Y-83751342D01*
X149461821Y-83906121D01*
X149409873Y-83952845D01*
X149340910Y-83964068D01*
X149276828Y-83936224D01*
X149268601Y-83928705D01*
X149129786Y-83789890D01*
X148957820Y-83664951D01*
X148768414Y-83568444D01*
X148768413Y-83568443D01*
X148768412Y-83568443D01*
X148566243Y-83502754D01*
X148566241Y-83502753D01*
X148566240Y-83502753D01*
X148404957Y-83477208D01*
X148356287Y-83469500D01*
X148143713Y-83469500D01*
X148095042Y-83477208D01*
X147933760Y-83502753D01*
X147731585Y-83568444D01*
X147542179Y-83664951D01*
X147370213Y-83789890D01*
X147219894Y-83940209D01*
X147219890Y-83940214D01*
X147100318Y-84104793D01*
X147044989Y-84147459D01*
X146975375Y-84153438D01*
X146913580Y-84120833D01*
X146899682Y-84104793D01*
X146780109Y-83940214D01*
X146780105Y-83940209D01*
X146629786Y-83789890D01*
X146457820Y-83664951D01*
X146268414Y-83568444D01*
X146268413Y-83568443D01*
X146268412Y-83568443D01*
X146066243Y-83502754D01*
X146066241Y-83502753D01*
X146066240Y-83502753D01*
X145904957Y-83477208D01*
X145856287Y-83469500D01*
X145643713Y-83469500D01*
X145595042Y-83477208D01*
X145433760Y-83502753D01*
X145231585Y-83568444D01*
X145042179Y-83664951D01*
X144870213Y-83789890D01*
X144719894Y-83940209D01*
X144719890Y-83940214D01*
X144600008Y-84105218D01*
X144544678Y-84147884D01*
X144475065Y-84153863D01*
X144413270Y-84121257D01*
X144399372Y-84105218D01*
X144279727Y-83940540D01*
X144279723Y-83940535D01*
X144129464Y-83790276D01*
X144129459Y-83790272D01*
X143957557Y-83665379D01*
X143768215Y-83568903D01*
X143566124Y-83503241D01*
X143500000Y-83492768D01*
X143500000Y-84540854D01*
X143433343Y-84502370D01*
X143312535Y-84470000D01*
X143187465Y-84470000D01*
X143066657Y-84502370D01*
X143000000Y-84540854D01*
X143000000Y-83492768D01*
X142999999Y-83492768D01*
X142933875Y-83503241D01*
X142731784Y-83568903D01*
X142542442Y-83665379D01*
X142370540Y-83790272D01*
X142370535Y-83790276D01*
X142220276Y-83940535D01*
X142220272Y-83940540D01*
X142095379Y-84112442D01*
X141998904Y-84301782D01*
X141933242Y-84503869D01*
X141933242Y-84503872D01*
X141902970Y-84695000D01*
X142845854Y-84695000D01*
X142807370Y-84761657D01*
X142775000Y-84882465D01*
X142775000Y-85007535D01*
X142807370Y-85128343D01*
X142845854Y-85195000D01*
X141902970Y-85195000D01*
X141933242Y-85386127D01*
X141933242Y-85386130D01*
X141998904Y-85588217D01*
X142095379Y-85777557D01*
X142220272Y-85949459D01*
X142220276Y-85949464D01*
X142370535Y-86099723D01*
X142370540Y-86099727D01*
X142542442Y-86224620D01*
X142731782Y-86321095D01*
X142933871Y-86386757D01*
X143000000Y-86397231D01*
X143000000Y-85349145D01*
X143066657Y-85387630D01*
X143187465Y-85420000D01*
X143312535Y-85420000D01*
X143433343Y-85387630D01*
X143500000Y-85349145D01*
X143500000Y-86397230D01*
X143566126Y-86386757D01*
X143566129Y-86386757D01*
X143768217Y-86321095D01*
X143957557Y-86224620D01*
X144129459Y-86099727D01*
X144129464Y-86099723D01*
X144279721Y-85949466D01*
X144399371Y-85784781D01*
X144454701Y-85742115D01*
X144524314Y-85736136D01*
X144586110Y-85768741D01*
X144600008Y-85784781D01*
X144719890Y-85949785D01*
X144719894Y-85949790D01*
X144870213Y-86100109D01*
X145042179Y-86225048D01*
X145042181Y-86225049D01*
X145042184Y-86225051D01*
X145231588Y-86321557D01*
X145433757Y-86387246D01*
X145643713Y-86420500D01*
X145643714Y-86420500D01*
X145856286Y-86420500D01*
X145856287Y-86420500D01*
X146066243Y-86387246D01*
X146268412Y-86321557D01*
X146457816Y-86225051D01*
X146505811Y-86190181D01*
X146629786Y-86100109D01*
X146629788Y-86100106D01*
X146629792Y-86100104D01*
X146780104Y-85949792D01*
X146899683Y-85785204D01*
X146955011Y-85742540D01*
X147024624Y-85736561D01*
X147086420Y-85769166D01*
X147100313Y-85785199D01*
X147219896Y-85949792D01*
X147370208Y-86100104D01*
X147448384Y-86156902D01*
X147491051Y-86212231D01*
X147499500Y-86257220D01*
X147499500Y-98123000D01*
X147479815Y-98190039D01*
X147427011Y-98235794D01*
X147375500Y-98247000D01*
X144166999Y-98247000D01*
X144099960Y-98227315D01*
X144054205Y-98174511D01*
X144042999Y-98123000D01*
X144042999Y-98099629D01*
X144042998Y-98099623D01*
X144042997Y-98099616D01*
X144036591Y-98040017D01*
X143986296Y-97905169D01*
X143986295Y-97905168D01*
X143986293Y-97905164D01*
X143900047Y-97789955D01*
X143900044Y-97789952D01*
X143784835Y-97703706D01*
X143784828Y-97703702D01*
X143652901Y-97654497D01*
X143596967Y-97612626D01*
X143572550Y-97547162D01*
X143587402Y-97478889D01*
X143608553Y-97450633D01*
X143722228Y-97336958D01*
X143847120Y-97165057D01*
X143943595Y-96975717D01*
X144009257Y-96773629D01*
X144009257Y-96773626D01*
X144019731Y-96707500D01*
X142840982Y-96707500D01*
X142851611Y-96689091D01*
X142892500Y-96536491D01*
X142892500Y-96378509D01*
X142851611Y-96225909D01*
X142840982Y-96207500D01*
X144019731Y-96207500D01*
X144009257Y-96141373D01*
X144009257Y-96141370D01*
X143943595Y-95939282D01*
X143847120Y-95749942D01*
X143722227Y-95578040D01*
X143722223Y-95578035D01*
X143571964Y-95427776D01*
X143571959Y-95427772D01*
X143400055Y-95302877D01*
X143391000Y-95298263D01*
X143340206Y-95250288D01*
X143323412Y-95182466D01*
X143345951Y-95116332D01*
X143391008Y-95077293D01*
X143400316Y-95072551D01*
X143479507Y-95015015D01*
X143572286Y-94947609D01*
X143572288Y-94947606D01*
X143572292Y-94947604D01*
X143722604Y-94797292D01*
X143722606Y-94797288D01*
X143722609Y-94797286D01*
X143847548Y-94625320D01*
X143847547Y-94625320D01*
X143847551Y-94625316D01*
X143944057Y-94435912D01*
X144009746Y-94233743D01*
X144043000Y-94023787D01*
X144043000Y-93811213D01*
X144009746Y-93601257D01*
X143944057Y-93399088D01*
X143847551Y-93209684D01*
X143847549Y-93209681D01*
X143847548Y-93209679D01*
X143722609Y-93037713D01*
X143572286Y-92887390D01*
X143400320Y-92762451D01*
X143210914Y-92665944D01*
X143210913Y-92665943D01*
X143210912Y-92665943D01*
X143008743Y-92600254D01*
X143008741Y-92600253D01*
X143008740Y-92600253D01*
X142847457Y-92574708D01*
X142798787Y-92567000D01*
X142798786Y-92567000D01*
X142054729Y-92567000D01*
X141987690Y-92547315D01*
X141967048Y-92530681D01*
X138886818Y-89450450D01*
X138853333Y-89389127D01*
X138850499Y-89362769D01*
X138850499Y-88182129D01*
X138850498Y-88182123D01*
X138850497Y-88182116D01*
X138844091Y-88122517D01*
X138793796Y-87987669D01*
X138793795Y-87987668D01*
X138793793Y-87987664D01*
X138707547Y-87872455D01*
X138707544Y-87872452D01*
X138592335Y-87786206D01*
X138592328Y-87786202D01*
X138460917Y-87737189D01*
X138404983Y-87695318D01*
X138380566Y-87629853D01*
X138395418Y-87561580D01*
X138416563Y-87533332D01*
X138530104Y-87419792D01*
X138655051Y-87247816D01*
X138751557Y-87058412D01*
X138817246Y-86856243D01*
X138850500Y-86646287D01*
X138850500Y-86433713D01*
X138817246Y-86223757D01*
X138751557Y-86021588D01*
X138655051Y-85832184D01*
X138655049Y-85832181D01*
X138655048Y-85832179D01*
X138530109Y-85660213D01*
X138379786Y-85509890D01*
X138207820Y-85384951D01*
X138207115Y-85384591D01*
X138199054Y-85380485D01*
X138196326Y-85377907D01*
X138192683Y-85377000D01*
X138171126Y-85354108D01*
X138148259Y-85332512D01*
X138147356Y-85328866D01*
X138144783Y-85326134D01*
X138139023Y-85295221D01*
X138131463Y-85264692D01*
X138132673Y-85261138D01*
X138131986Y-85257446D01*
X138143855Y-85228323D01*
X138153999Y-85198556D01*
X138157353Y-85195206D01*
X138158357Y-85192744D01*
X138166378Y-85186194D01*
X138184051Y-85168548D01*
X138191233Y-85163499D01*
X138207816Y-85155051D01*
X138379792Y-85030104D01*
X138530104Y-84879792D01*
X138530106Y-84879788D01*
X138530109Y-84879786D01*
X138655048Y-84707820D01*
X138655047Y-84707820D01*
X138655051Y-84707816D01*
X138751557Y-84518412D01*
X138817246Y-84316243D01*
X138850500Y-84106287D01*
X138850500Y-83893713D01*
X138817246Y-83683757D01*
X138751557Y-83481588D01*
X138705296Y-83390795D01*
X138692400Y-83322125D01*
X138718677Y-83257385D01*
X138775783Y-83217128D01*
X138815781Y-83210500D01*
X149875500Y-83210500D01*
X149942539Y-83230185D01*
G37*
%TD.AperFunction*%
%TA.AperFunction,Conductor*%
G36*
X167003736Y-76000726D02*
G01*
X167293796Y-76018271D01*
X167308659Y-76020076D01*
X167590798Y-76071780D01*
X167605335Y-76075363D01*
X167879172Y-76160695D01*
X167893163Y-76166000D01*
X168154743Y-76283727D01*
X168167989Y-76290680D01*
X168413465Y-76439075D01*
X168425776Y-76447573D01*
X168535748Y-76533730D01*
X168651573Y-76624473D01*
X168662781Y-76634403D01*
X168865596Y-76837218D01*
X168875526Y-76848426D01*
X168995481Y-77001538D01*
X169052422Y-77074217D01*
X169060926Y-77086537D01*
X169201633Y-77319295D01*
X169209316Y-77332004D01*
X169216275Y-77345263D01*
X169333997Y-77606831D01*
X169339306Y-77620832D01*
X169424635Y-77894663D01*
X169428219Y-77909201D01*
X169479923Y-78191340D01*
X169481728Y-78206205D01*
X169499274Y-78496263D01*
X169499500Y-78503750D01*
X169499500Y-99996249D01*
X169499274Y-100003736D01*
X169481728Y-100293794D01*
X169479923Y-100308659D01*
X169428219Y-100590798D01*
X169424635Y-100605336D01*
X169339306Y-100879167D01*
X169333997Y-100893168D01*
X169216275Y-101154736D01*
X169209316Y-101167995D01*
X169060928Y-101413459D01*
X169052422Y-101425782D01*
X168875526Y-101651573D01*
X168865596Y-101662781D01*
X168662781Y-101865596D01*
X168651573Y-101875526D01*
X168425782Y-102052422D01*
X168413459Y-102060928D01*
X168167995Y-102209316D01*
X168154736Y-102216275D01*
X167893168Y-102333997D01*
X167879167Y-102339306D01*
X167605336Y-102424635D01*
X167590798Y-102428219D01*
X167308659Y-102479923D01*
X167293794Y-102481728D01*
X167003736Y-102499274D01*
X166996249Y-102499500D01*
X137503751Y-102499500D01*
X137496264Y-102499274D01*
X137206205Y-102481728D01*
X137191340Y-102479923D01*
X136909201Y-102428219D01*
X136894663Y-102424635D01*
X136620832Y-102339306D01*
X136606831Y-102333997D01*
X136345263Y-102216275D01*
X136332004Y-102209316D01*
X136086540Y-102060928D01*
X136074217Y-102052422D01*
X136007943Y-102000500D01*
X135848426Y-101875526D01*
X135837218Y-101865596D01*
X135634403Y-101662781D01*
X135624473Y-101651573D01*
X135447573Y-101425776D01*
X135439075Y-101413465D01*
X135290680Y-101167989D01*
X135283727Y-101154743D01*
X135166000Y-100893163D01*
X135160693Y-100879167D01*
X135075364Y-100605336D01*
X135071780Y-100590798D01*
X135035187Y-100391116D01*
X135020075Y-100308657D01*
X135018271Y-100293794D01*
X135000726Y-100003736D01*
X135000500Y-99996249D01*
X135000500Y-99868872D01*
X135499500Y-99868872D01*
X135499500Y-100131127D01*
X135520436Y-100290140D01*
X135533730Y-100391116D01*
X135589210Y-100598170D01*
X135601602Y-100644418D01*
X135601605Y-100644428D01*
X135701953Y-100886690D01*
X135701958Y-100886700D01*
X135833075Y-101113803D01*
X135992718Y-101321851D01*
X135992726Y-101321860D01*
X136178140Y-101507274D01*
X136178148Y-101507281D01*
X136386196Y-101666924D01*
X136613299Y-101798041D01*
X136613309Y-101798046D01*
X136789202Y-101870903D01*
X136855581Y-101898398D01*
X137108884Y-101966270D01*
X137368880Y-102000500D01*
X137368887Y-102000500D01*
X137631113Y-102000500D01*
X137631120Y-102000500D01*
X137891116Y-101966270D01*
X138144419Y-101898398D01*
X138386697Y-101798043D01*
X138613803Y-101666924D01*
X138821851Y-101507282D01*
X138821855Y-101507277D01*
X138821860Y-101507274D01*
X139007274Y-101321860D01*
X139007277Y-101321855D01*
X139007282Y-101321851D01*
X139166924Y-101113803D01*
X139298043Y-100886697D01*
X139398398Y-100644419D01*
X139466270Y-100391116D01*
X139500500Y-100131120D01*
X139500500Y-99868880D01*
X139466270Y-99608884D01*
X139398398Y-99355581D01*
X139345727Y-99228421D01*
X139298046Y-99113309D01*
X139298041Y-99113299D01*
X139166924Y-98886196D01*
X139007281Y-98678148D01*
X139007274Y-98678140D01*
X138821860Y-98492726D01*
X138821851Y-98492718D01*
X138613803Y-98333075D01*
X138386700Y-98201958D01*
X138386690Y-98201953D01*
X138144428Y-98101605D01*
X138144421Y-98101603D01*
X138144419Y-98101602D01*
X137891116Y-98033730D01*
X137833339Y-98026123D01*
X137631127Y-97999500D01*
X137631120Y-97999500D01*
X137368880Y-97999500D01*
X137368872Y-97999500D01*
X137137772Y-98029926D01*
X137108884Y-98033730D01*
X136862993Y-98099616D01*
X136855581Y-98101602D01*
X136855571Y-98101605D01*
X136613309Y-98201953D01*
X136613299Y-98201958D01*
X136386196Y-98333075D01*
X136178148Y-98492718D01*
X135992718Y-98678148D01*
X135833075Y-98886196D01*
X135701958Y-99113299D01*
X135701953Y-99113309D01*
X135601605Y-99355571D01*
X135601602Y-99355581D01*
X135541349Y-99580452D01*
X135533730Y-99608885D01*
X135499500Y-99868872D01*
X135000500Y-99868872D01*
X135000500Y-83893713D01*
X136149500Y-83893713D01*
X136149500Y-84106286D01*
X136180463Y-84301782D01*
X136182754Y-84316243D01*
X136243681Y-84503757D01*
X136248444Y-84518414D01*
X136344951Y-84707820D01*
X136469890Y-84879786D01*
X136620213Y-85030109D01*
X136792182Y-85155050D01*
X136800946Y-85159516D01*
X136851742Y-85207491D01*
X136868536Y-85275312D01*
X136845998Y-85341447D01*
X136800946Y-85380484D01*
X136792182Y-85384949D01*
X136620213Y-85509890D01*
X136469890Y-85660213D01*
X136344951Y-85832179D01*
X136248444Y-86021585D01*
X136182753Y-86223760D01*
X136149500Y-86433713D01*
X136149500Y-86646286D01*
X136182753Y-86856239D01*
X136248444Y-87058414D01*
X136344951Y-87247820D01*
X136469890Y-87419786D01*
X136583430Y-87533326D01*
X136616915Y-87594649D01*
X136611931Y-87664341D01*
X136570059Y-87720274D01*
X136539083Y-87737189D01*
X136407669Y-87786203D01*
X136407664Y-87786206D01*
X136292455Y-87872452D01*
X136292452Y-87872455D01*
X136206206Y-87987664D01*
X136206202Y-87987671D01*
X136155908Y-88122517D01*
X136149501Y-88182116D01*
X136149501Y-88182123D01*
X136149500Y-88182135D01*
X136149500Y-89977870D01*
X136149501Y-89977876D01*
X136155908Y-90037483D01*
X136206202Y-90172328D01*
X136206206Y-90172335D01*
X136292452Y-90287544D01*
X136292455Y-90287547D01*
X136407664Y-90373793D01*
X136407671Y-90373797D01*
X136542517Y-90424091D01*
X136542516Y-90424091D01*
X136549444Y-90424835D01*
X136602127Y-90430500D01*
X137692769Y-90430499D01*
X137759808Y-90450184D01*
X137780450Y-90466818D01*
X140604813Y-93291181D01*
X140638298Y-93352504D01*
X140635063Y-93417179D01*
X140575254Y-93601255D01*
X140575253Y-93601259D01*
X140542000Y-93811213D01*
X140542000Y-94023786D01*
X140575253Y-94233739D01*
X140640944Y-94435914D01*
X140737451Y-94625320D01*
X140862390Y-94797286D01*
X141012713Y-94947609D01*
X141184679Y-95072548D01*
X141184681Y-95072549D01*
X141184684Y-95072551D01*
X141193993Y-95077294D01*
X141244790Y-95125266D01*
X141261587Y-95193087D01*
X141239052Y-95259222D01*
X141194002Y-95298262D01*
X141184943Y-95302878D01*
X141013040Y-95427772D01*
X141013035Y-95427776D01*
X140862776Y-95578035D01*
X140862772Y-95578040D01*
X140737879Y-95749942D01*
X140641404Y-95939282D01*
X140575742Y-96141370D01*
X140575742Y-96141373D01*
X140565269Y-96207500D01*
X141744018Y-96207500D01*
X141733389Y-96225909D01*
X141692500Y-96378509D01*
X141692500Y-96536491D01*
X141733389Y-96689091D01*
X141744018Y-96707500D01*
X140565269Y-96707500D01*
X140575742Y-96773626D01*
X140575742Y-96773629D01*
X140641404Y-96975717D01*
X140737879Y-97165057D01*
X140862772Y-97336959D01*
X140862776Y-97336964D01*
X140976446Y-97450634D01*
X141009931Y-97511957D01*
X141004947Y-97581649D01*
X140963075Y-97637582D01*
X140932098Y-97654497D01*
X140800171Y-97703702D01*
X140800164Y-97703706D01*
X140684955Y-97789952D01*
X140684952Y-97789955D01*
X140598706Y-97905164D01*
X140598702Y-97905171D01*
X140548408Y-98040017D01*
X140542001Y-98099616D01*
X140542001Y-98099623D01*
X140542000Y-98099635D01*
X140542000Y-99895370D01*
X140542001Y-99895376D01*
X140548408Y-99954983D01*
X140598702Y-100089828D01*
X140598706Y-100089835D01*
X140684952Y-100205044D01*
X140684955Y-100205047D01*
X140800164Y-100291293D01*
X140800171Y-100291297D01*
X140935017Y-100341591D01*
X140935016Y-100341591D01*
X140941944Y-100342335D01*
X140994627Y-100348000D01*
X143590372Y-100347999D01*
X143649983Y-100341591D01*
X143784831Y-100291296D01*
X143900046Y-100205046D01*
X143986296Y-100089831D01*
X144036591Y-99954983D01*
X144043000Y-99895373D01*
X144043000Y-99872000D01*
X144043918Y-99868872D01*
X164999500Y-99868872D01*
X164999500Y-100131127D01*
X165020436Y-100290140D01*
X165033730Y-100391116D01*
X165089210Y-100598170D01*
X165101602Y-100644418D01*
X165101605Y-100644428D01*
X165201953Y-100886690D01*
X165201958Y-100886700D01*
X165333075Y-101113803D01*
X165492718Y-101321851D01*
X165492726Y-101321860D01*
X165678140Y-101507274D01*
X165678148Y-101507281D01*
X165886196Y-101666924D01*
X166113299Y-101798041D01*
X166113309Y-101798046D01*
X166289202Y-101870903D01*
X166355581Y-101898398D01*
X166608884Y-101966270D01*
X166868880Y-102000500D01*
X166868887Y-102000500D01*
X167131113Y-102000500D01*
X167131120Y-102000500D01*
X167391116Y-101966270D01*
X167644419Y-101898398D01*
X167886697Y-101798043D01*
X168113803Y-101666924D01*
X168321851Y-101507282D01*
X168321855Y-101507277D01*
X168321860Y-101507274D01*
X168507274Y-101321860D01*
X168507277Y-101321855D01*
X168507282Y-101321851D01*
X168666924Y-101113803D01*
X168798043Y-100886697D01*
X168898398Y-100644419D01*
X168966270Y-100391116D01*
X169000500Y-100131120D01*
X169000500Y-99868880D01*
X168966270Y-99608884D01*
X168898398Y-99355581D01*
X168845727Y-99228421D01*
X168798046Y-99113309D01*
X168798041Y-99113299D01*
X168666924Y-98886196D01*
X168507281Y-98678148D01*
X168507274Y-98678140D01*
X168321860Y-98492726D01*
X168321851Y-98492718D01*
X168113803Y-98333075D01*
X167886700Y-98201958D01*
X167886690Y-98201953D01*
X167644428Y-98101605D01*
X167644421Y-98101603D01*
X167644419Y-98101602D01*
X167391116Y-98033730D01*
X167333339Y-98026123D01*
X167131127Y-97999500D01*
X167131120Y-97999500D01*
X166868880Y-97999500D01*
X166868872Y-97999500D01*
X166637772Y-98029926D01*
X166608884Y-98033730D01*
X166362993Y-98099616D01*
X166355581Y-98101602D01*
X166355571Y-98101605D01*
X166113309Y-98201953D01*
X166113299Y-98201958D01*
X165886196Y-98333075D01*
X165678148Y-98492718D01*
X165492718Y-98678148D01*
X165333075Y-98886196D01*
X165201958Y-99113299D01*
X165201953Y-99113309D01*
X165101605Y-99355571D01*
X165101602Y-99355581D01*
X165041349Y-99580452D01*
X165033730Y-99608885D01*
X164999500Y-99868872D01*
X144043918Y-99868872D01*
X144062685Y-99804961D01*
X144115489Y-99759206D01*
X144167000Y-99748000D01*
X148076420Y-99748000D01*
X148100531Y-99743204D01*
X148187213Y-99725960D01*
X148221413Y-99719158D01*
X148357995Y-99662584D01*
X148407229Y-99629686D01*
X148480916Y-99580452D01*
X148832952Y-99228416D01*
X148857210Y-99192110D01*
X148906375Y-99118530D01*
X148906377Y-99118525D01*
X148906381Y-99118520D01*
X148915084Y-99105495D01*
X148971658Y-98968913D01*
X149000500Y-98823918D01*
X149000500Y-94176082D01*
X149000500Y-86257220D01*
X149020185Y-86190181D01*
X149051614Y-86156902D01*
X149129792Y-86100104D01*
X149268604Y-85961291D01*
X149329923Y-85927809D01*
X149399615Y-85932793D01*
X149455549Y-85974664D01*
X149461821Y-85983878D01*
X149465185Y-85989333D01*
X149465186Y-85989334D01*
X149557288Y-86138656D01*
X149681344Y-86262712D01*
X149830666Y-86354814D01*
X149997203Y-86409999D01*
X150099991Y-86420500D01*
X151400008Y-86420499D01*
X151502797Y-86409999D01*
X151669334Y-86354814D01*
X151818656Y-86262712D01*
X151942712Y-86138656D01*
X152034814Y-85989334D01*
X152089999Y-85822797D01*
X152100500Y-85720009D01*
X152100499Y-84169992D01*
X152098851Y-84153863D01*
X152089999Y-84067203D01*
X152089998Y-84067200D01*
X152052104Y-83952845D01*
X152034814Y-83900666D01*
X151942712Y-83751344D01*
X151818656Y-83627288D01*
X151669334Y-83535186D01*
X151585495Y-83507404D01*
X151528051Y-83467632D01*
X151501228Y-83403116D01*
X151500500Y-83389699D01*
X151500500Y-82676079D01*
X151471659Y-82531092D01*
X151471658Y-82531091D01*
X151471658Y-82531087D01*
X151415084Y-82394505D01*
X151382186Y-82345270D01*
X151382185Y-82345268D01*
X151332956Y-82271589D01*
X151332952Y-82271584D01*
X150938421Y-81877052D01*
X150938414Y-81877046D01*
X150864729Y-81827812D01*
X150864729Y-81827813D01*
X150815491Y-81794913D01*
X150678917Y-81738343D01*
X150678907Y-81738340D01*
X150533920Y-81709500D01*
X150533918Y-81709500D01*
X137573918Y-81709500D01*
X137426082Y-81709500D01*
X137426080Y-81709500D01*
X137281092Y-81738340D01*
X137281082Y-81738343D01*
X137144511Y-81794912D01*
X137144498Y-81794919D01*
X137021584Y-81877048D01*
X137021580Y-81877051D01*
X136917051Y-81981580D01*
X136917048Y-81981584D01*
X136834919Y-82104498D01*
X136834912Y-82104511D01*
X136778343Y-82241082D01*
X136778340Y-82241092D01*
X136749500Y-82386079D01*
X136749500Y-82812779D01*
X136729815Y-82879818D01*
X136698385Y-82913097D01*
X136620211Y-82969893D01*
X136620205Y-82969898D01*
X136469890Y-83120213D01*
X136344951Y-83292179D01*
X136248444Y-83481585D01*
X136248443Y-83481587D01*
X136248443Y-83481588D01*
X136240055Y-83507405D01*
X136182753Y-83683760D01*
X136149500Y-83893713D01*
X135000500Y-83893713D01*
X135000500Y-78503750D01*
X135000726Y-78496263D01*
X135008432Y-78368872D01*
X135499500Y-78368872D01*
X135499500Y-78631127D01*
X135520436Y-78790140D01*
X135533730Y-78891116D01*
X135555178Y-78971161D01*
X135601602Y-79144418D01*
X135601605Y-79144428D01*
X135701953Y-79386690D01*
X135701958Y-79386700D01*
X135833075Y-79613803D01*
X135992718Y-79821851D01*
X135992726Y-79821860D01*
X136178140Y-80007274D01*
X136178148Y-80007281D01*
X136386196Y-80166924D01*
X136613299Y-80298041D01*
X136613309Y-80298046D01*
X136855571Y-80398394D01*
X136855581Y-80398398D01*
X137108884Y-80466270D01*
X137368880Y-80500500D01*
X137368887Y-80500500D01*
X137631113Y-80500500D01*
X137631120Y-80500500D01*
X137891116Y-80466270D01*
X138144419Y-80398398D01*
X138386697Y-80298043D01*
X138613803Y-80166924D01*
X138821851Y-80007282D01*
X138821855Y-80007277D01*
X138821860Y-80007274D01*
X139007274Y-79821860D01*
X139007277Y-79821855D01*
X139007282Y-79821851D01*
X139166924Y-79613803D01*
X139298043Y-79386697D01*
X139398398Y-79144419D01*
X139466270Y-78891116D01*
X139500500Y-78631120D01*
X139500500Y-78368880D01*
X139500499Y-78368872D01*
X164999500Y-78368872D01*
X164999500Y-78631127D01*
X165020436Y-78790140D01*
X165033730Y-78891116D01*
X165055178Y-78971161D01*
X165101602Y-79144418D01*
X165101605Y-79144428D01*
X165201953Y-79386690D01*
X165201958Y-79386700D01*
X165333075Y-79613803D01*
X165492718Y-79821851D01*
X165492726Y-79821860D01*
X165678140Y-80007274D01*
X165678148Y-80007281D01*
X165886196Y-80166924D01*
X166113299Y-80298041D01*
X166113309Y-80298046D01*
X166355571Y-80398394D01*
X166355581Y-80398398D01*
X166608884Y-80466270D01*
X166868880Y-80500500D01*
X166868887Y-80500500D01*
X167131113Y-80500500D01*
X167131120Y-80500500D01*
X167391116Y-80466270D01*
X167644419Y-80398398D01*
X167886697Y-80298043D01*
X168113803Y-80166924D01*
X168321851Y-80007282D01*
X168321855Y-80007277D01*
X168321860Y-80007274D01*
X168507274Y-79821860D01*
X168507277Y-79821855D01*
X168507282Y-79821851D01*
X168666924Y-79613803D01*
X168798043Y-79386697D01*
X168898398Y-79144419D01*
X168966270Y-78891116D01*
X169000500Y-78631120D01*
X169000500Y-78368880D01*
X168966270Y-78108884D01*
X168898398Y-77855581D01*
X168798193Y-77613665D01*
X168798046Y-77613309D01*
X168798041Y-77613299D01*
X168666924Y-77386196D01*
X168507281Y-77178148D01*
X168507274Y-77178140D01*
X168321860Y-76992726D01*
X168321851Y-76992718D01*
X168113803Y-76833075D01*
X167886700Y-76701958D01*
X167886690Y-76701953D01*
X167644428Y-76601605D01*
X167644421Y-76601603D01*
X167644419Y-76601602D01*
X167391116Y-76533730D01*
X167333339Y-76526123D01*
X167131127Y-76499500D01*
X167131120Y-76499500D01*
X166868880Y-76499500D01*
X166868872Y-76499500D01*
X166637772Y-76529926D01*
X166608884Y-76533730D01*
X166355581Y-76601602D01*
X166355571Y-76601605D01*
X166113309Y-76701953D01*
X166113299Y-76701958D01*
X165886196Y-76833075D01*
X165678148Y-76992718D01*
X165492718Y-77178148D01*
X165333075Y-77386196D01*
X165201958Y-77613299D01*
X165201953Y-77613309D01*
X165101605Y-77855571D01*
X165101602Y-77855581D01*
X165066724Y-77985750D01*
X165033730Y-78108885D01*
X164999500Y-78368872D01*
X139500499Y-78368872D01*
X139466270Y-78108884D01*
X139398398Y-77855581D01*
X139298193Y-77613665D01*
X139298046Y-77613309D01*
X139298041Y-77613299D01*
X139166924Y-77386196D01*
X139007281Y-77178148D01*
X139007274Y-77178140D01*
X138821860Y-76992726D01*
X138821851Y-76992718D01*
X138613803Y-76833075D01*
X138386700Y-76701958D01*
X138386690Y-76701953D01*
X138144428Y-76601605D01*
X138144421Y-76601603D01*
X138144419Y-76601602D01*
X137891116Y-76533730D01*
X137833339Y-76526123D01*
X137631127Y-76499500D01*
X137631120Y-76499500D01*
X137368880Y-76499500D01*
X137368872Y-76499500D01*
X137137772Y-76529926D01*
X137108884Y-76533730D01*
X136855581Y-76601602D01*
X136855571Y-76601605D01*
X136613309Y-76701953D01*
X136613299Y-76701958D01*
X136386196Y-76833075D01*
X136178148Y-76992718D01*
X135992718Y-77178148D01*
X135833075Y-77386196D01*
X135701958Y-77613299D01*
X135701953Y-77613309D01*
X135601605Y-77855571D01*
X135601602Y-77855581D01*
X135566724Y-77985750D01*
X135533730Y-78108885D01*
X135499500Y-78368872D01*
X135008432Y-78368872D01*
X135009130Y-78357334D01*
X135009130Y-78357333D01*
X135018271Y-78206206D01*
X135020076Y-78191340D01*
X135035187Y-78108885D01*
X135071780Y-77909197D01*
X135075364Y-77894663D01*
X135160696Y-77620822D01*
X135165998Y-77606841D01*
X135283731Y-77345249D01*
X135290676Y-77332016D01*
X135439080Y-77086526D01*
X135447567Y-77074230D01*
X135624480Y-76848417D01*
X135634395Y-76837226D01*
X135837226Y-76634395D01*
X135848417Y-76624480D01*
X136074230Y-76447567D01*
X136086526Y-76439080D01*
X136332016Y-76290676D01*
X136345249Y-76283731D01*
X136606841Y-76165998D01*
X136620822Y-76160696D01*
X136894668Y-76075362D01*
X136909197Y-76071780D01*
X137191344Y-76020075D01*
X137206201Y-76018271D01*
X137496264Y-76000726D01*
X137503751Y-76000500D01*
X137565892Y-76000500D01*
X166934108Y-76000500D01*
X166996249Y-76000500D01*
X167003736Y-76000726D01*
G37*
%TD.AperFunction*%
%TD*%
M02*
