%TF.GenerationSoftware,KiCad,Pcbnew,9.0.2*%
%TF.CreationDate,2025-07-05T13:36:24+12:00*%
%TF.ProjectId,SPI-POWER-INJECTOR,5350492d-504f-4574-9552-2d494e4a4543,rev?*%
%TF.SameCoordinates,Original*%
%TF.FileFunction,Legend,Top*%
%TF.FilePolarity,Positive*%
%FSLAX46Y46*%
G04 Gerber Fmt 4.6, Leading zero omitted, Abs format (unit mm)*
G04 Created by KiCad (PCBNEW 9.0.2) date 2025-07-05 13:36:24*
%MOMM*%
%LPD*%
G01*
G04 APERTURE LIST*
%ADD10C,0.150000*%
%ADD11C,0.100000*%
%ADD12C,0.200000*%
%ADD13C,0.120000*%
G04 APERTURE END LIST*
D10*
X134954819Y-84190476D02*
X134954819Y-84666666D01*
X134954819Y-84666666D02*
X135431009Y-84714285D01*
X135431009Y-84714285D02*
X135383390Y-84666666D01*
X135383390Y-84666666D02*
X135335771Y-84571428D01*
X135335771Y-84571428D02*
X135335771Y-84333333D01*
X135335771Y-84333333D02*
X135383390Y-84238095D01*
X135383390Y-84238095D02*
X135431009Y-84190476D01*
X135431009Y-84190476D02*
X135526247Y-84142857D01*
X135526247Y-84142857D02*
X135764342Y-84142857D01*
X135764342Y-84142857D02*
X135859580Y-84190476D01*
X135859580Y-84190476D02*
X135907200Y-84238095D01*
X135907200Y-84238095D02*
X135954819Y-84333333D01*
X135954819Y-84333333D02*
X135954819Y-84571428D01*
X135954819Y-84571428D02*
X135907200Y-84666666D01*
X135907200Y-84666666D02*
X135859580Y-84714285D01*
X134954819Y-83857142D02*
X135954819Y-83523809D01*
X135954819Y-83523809D02*
X134954819Y-83190476D01*
D11*
X169753371Y-94410401D02*
X169753371Y-94458020D01*
X169753371Y-94458020D02*
X169705752Y-94553258D01*
X169705752Y-94553258D02*
X169610514Y-94600877D01*
X169610514Y-94600877D02*
X169134323Y-94600877D01*
X169134323Y-94600877D02*
X169039085Y-94648496D01*
X169039085Y-94648496D02*
X168991466Y-94743734D01*
X168991466Y-94743734D02*
X168943847Y-94648496D01*
X168943847Y-94648496D02*
X168848609Y-94600877D01*
X168848609Y-94600877D02*
X168372419Y-94600877D01*
X168372419Y-94600877D02*
X168277180Y-94553258D01*
X168277180Y-94553258D02*
X168229561Y-94458020D01*
X168229561Y-94458020D02*
X168229561Y-94410401D01*
X168848609Y-93696115D02*
X168848609Y-94029448D01*
X169372419Y-94029448D02*
X168372419Y-94029448D01*
X168372419Y-94029448D02*
X168372419Y-93553258D01*
X169372419Y-93029448D02*
X169324800Y-93124686D01*
X169324800Y-93124686D02*
X169277180Y-93172305D01*
X169277180Y-93172305D02*
X169181942Y-93219924D01*
X169181942Y-93219924D02*
X168896228Y-93219924D01*
X168896228Y-93219924D02*
X168800990Y-93172305D01*
X168800990Y-93172305D02*
X168753371Y-93124686D01*
X168753371Y-93124686D02*
X168705752Y-93029448D01*
X168705752Y-93029448D02*
X168705752Y-92886591D01*
X168705752Y-92886591D02*
X168753371Y-92791353D01*
X168753371Y-92791353D02*
X168800990Y-92743734D01*
X168800990Y-92743734D02*
X168896228Y-92696115D01*
X168896228Y-92696115D02*
X169181942Y-92696115D01*
X169181942Y-92696115D02*
X169277180Y-92743734D01*
X169277180Y-92743734D02*
X169324800Y-92791353D01*
X169324800Y-92791353D02*
X169372419Y-92886591D01*
X169372419Y-92886591D02*
X169372419Y-93029448D01*
X169372419Y-92362781D02*
X168705752Y-91838972D01*
X168705752Y-92362781D02*
X169372419Y-91838972D01*
X169372419Y-91458019D02*
X168372419Y-91458019D01*
X168372419Y-91458019D02*
X168372419Y-91219924D01*
X168372419Y-91219924D02*
X168420038Y-91077067D01*
X168420038Y-91077067D02*
X168515276Y-90981829D01*
X168515276Y-90981829D02*
X168610514Y-90934210D01*
X168610514Y-90934210D02*
X168800990Y-90886591D01*
X168800990Y-90886591D02*
X168943847Y-90886591D01*
X168943847Y-90886591D02*
X169134323Y-90934210D01*
X169134323Y-90934210D02*
X169229561Y-90981829D01*
X169229561Y-90981829D02*
X169324800Y-91077067D01*
X169324800Y-91077067D02*
X169372419Y-91219924D01*
X169372419Y-91219924D02*
X169372419Y-91458019D01*
X169324800Y-90077067D02*
X169372419Y-90172305D01*
X169372419Y-90172305D02*
X169372419Y-90362781D01*
X169372419Y-90362781D02*
X169324800Y-90458019D01*
X169324800Y-90458019D02*
X169229561Y-90505638D01*
X169229561Y-90505638D02*
X168848609Y-90505638D01*
X168848609Y-90505638D02*
X168753371Y-90458019D01*
X168753371Y-90458019D02*
X168705752Y-90362781D01*
X168705752Y-90362781D02*
X168705752Y-90172305D01*
X168705752Y-90172305D02*
X168753371Y-90077067D01*
X168753371Y-90077067D02*
X168848609Y-90029448D01*
X168848609Y-90029448D02*
X168943847Y-90029448D01*
X168943847Y-90029448D02*
X169039085Y-90505638D01*
X168705752Y-89696114D02*
X169372419Y-89458019D01*
X169372419Y-89458019D02*
X168705752Y-89219924D01*
X168991466Y-88077066D02*
X168991466Y-87315162D01*
X168705752Y-86172304D02*
X169372419Y-85934209D01*
X169372419Y-85934209D02*
X168705752Y-85696114D01*
X168372419Y-85124685D02*
X168372419Y-85029447D01*
X168372419Y-85029447D02*
X168420038Y-84934209D01*
X168420038Y-84934209D02*
X168467657Y-84886590D01*
X168467657Y-84886590D02*
X168562895Y-84838971D01*
X168562895Y-84838971D02*
X168753371Y-84791352D01*
X168753371Y-84791352D02*
X168991466Y-84791352D01*
X168991466Y-84791352D02*
X169181942Y-84838971D01*
X169181942Y-84838971D02*
X169277180Y-84886590D01*
X169277180Y-84886590D02*
X169324800Y-84934209D01*
X169324800Y-84934209D02*
X169372419Y-85029447D01*
X169372419Y-85029447D02*
X169372419Y-85124685D01*
X169372419Y-85124685D02*
X169324800Y-85219923D01*
X169324800Y-85219923D02*
X169277180Y-85267542D01*
X169277180Y-85267542D02*
X169181942Y-85315161D01*
X169181942Y-85315161D02*
X168991466Y-85362780D01*
X168991466Y-85362780D02*
X168753371Y-85362780D01*
X168753371Y-85362780D02*
X168562895Y-85315161D01*
X168562895Y-85315161D02*
X168467657Y-85267542D01*
X168467657Y-85267542D02*
X168420038Y-85219923D01*
X168420038Y-85219923D02*
X168372419Y-85124685D01*
X168372419Y-84172304D02*
X168372419Y-84077066D01*
X168372419Y-84077066D02*
X168420038Y-83981828D01*
X168420038Y-83981828D02*
X168467657Y-83934209D01*
X168467657Y-83934209D02*
X168562895Y-83886590D01*
X168562895Y-83886590D02*
X168753371Y-83838971D01*
X168753371Y-83838971D02*
X168991466Y-83838971D01*
X168991466Y-83838971D02*
X169181942Y-83886590D01*
X169181942Y-83886590D02*
X169277180Y-83934209D01*
X169277180Y-83934209D02*
X169324800Y-83981828D01*
X169324800Y-83981828D02*
X169372419Y-84077066D01*
X169372419Y-84077066D02*
X169372419Y-84172304D01*
X169372419Y-84172304D02*
X169324800Y-84267542D01*
X169324800Y-84267542D02*
X169277180Y-84315161D01*
X169277180Y-84315161D02*
X169181942Y-84362780D01*
X169181942Y-84362780D02*
X168991466Y-84410399D01*
X168991466Y-84410399D02*
X168753371Y-84410399D01*
X168753371Y-84410399D02*
X168562895Y-84362780D01*
X168562895Y-84362780D02*
X168467657Y-84315161D01*
X168467657Y-84315161D02*
X168420038Y-84267542D01*
X168420038Y-84267542D02*
X168372419Y-84172304D01*
X169753371Y-83505637D02*
X169753371Y-83458018D01*
X169753371Y-83458018D02*
X169705752Y-83362780D01*
X169705752Y-83362780D02*
X169610514Y-83315161D01*
X169610514Y-83315161D02*
X169134323Y-83315161D01*
X169134323Y-83315161D02*
X169039085Y-83267542D01*
X169039085Y-83267542D02*
X168991466Y-83172304D01*
X168991466Y-83172304D02*
X168943847Y-83267542D01*
X168943847Y-83267542D02*
X168848609Y-83315161D01*
X168848609Y-83315161D02*
X168372419Y-83315161D01*
X168372419Y-83315161D02*
X168277180Y-83362780D01*
X168277180Y-83362780D02*
X168229561Y-83458018D01*
X168229561Y-83458018D02*
X168229561Y-83505637D01*
D12*
X167319600Y-97177945D02*
X167367219Y-97035088D01*
X167367219Y-97035088D02*
X167367219Y-96796993D01*
X167367219Y-96796993D02*
X167319600Y-96701755D01*
X167319600Y-96701755D02*
X167271980Y-96654136D01*
X167271980Y-96654136D02*
X167176742Y-96606517D01*
X167176742Y-96606517D02*
X167081504Y-96606517D01*
X167081504Y-96606517D02*
X166986266Y-96654136D01*
X166986266Y-96654136D02*
X166938647Y-96701755D01*
X166938647Y-96701755D02*
X166891028Y-96796993D01*
X166891028Y-96796993D02*
X166843409Y-96987469D01*
X166843409Y-96987469D02*
X166795790Y-97082707D01*
X166795790Y-97082707D02*
X166748171Y-97130326D01*
X166748171Y-97130326D02*
X166652933Y-97177945D01*
X166652933Y-97177945D02*
X166557695Y-97177945D01*
X166557695Y-97177945D02*
X166462457Y-97130326D01*
X166462457Y-97130326D02*
X166414838Y-97082707D01*
X166414838Y-97082707D02*
X166367219Y-96987469D01*
X166367219Y-96987469D02*
X166367219Y-96749374D01*
X166367219Y-96749374D02*
X166414838Y-96606517D01*
X167367219Y-96177945D02*
X166367219Y-96177945D01*
X166367219Y-96177945D02*
X166367219Y-95796993D01*
X166367219Y-95796993D02*
X166414838Y-95701755D01*
X166414838Y-95701755D02*
X166462457Y-95654136D01*
X166462457Y-95654136D02*
X166557695Y-95606517D01*
X166557695Y-95606517D02*
X166700552Y-95606517D01*
X166700552Y-95606517D02*
X166795790Y-95654136D01*
X166795790Y-95654136D02*
X166843409Y-95701755D01*
X166843409Y-95701755D02*
X166891028Y-95796993D01*
X166891028Y-95796993D02*
X166891028Y-96177945D01*
X167367219Y-95177945D02*
X166367219Y-95177945D01*
X167367219Y-93939850D02*
X166367219Y-93939850D01*
X166367219Y-93939850D02*
X166367219Y-93558898D01*
X166367219Y-93558898D02*
X166414838Y-93463660D01*
X166414838Y-93463660D02*
X166462457Y-93416041D01*
X166462457Y-93416041D02*
X166557695Y-93368422D01*
X166557695Y-93368422D02*
X166700552Y-93368422D01*
X166700552Y-93368422D02*
X166795790Y-93416041D01*
X166795790Y-93416041D02*
X166843409Y-93463660D01*
X166843409Y-93463660D02*
X166891028Y-93558898D01*
X166891028Y-93558898D02*
X166891028Y-93939850D01*
X166367219Y-92749374D02*
X166367219Y-92558898D01*
X166367219Y-92558898D02*
X166414838Y-92463660D01*
X166414838Y-92463660D02*
X166510076Y-92368422D01*
X166510076Y-92368422D02*
X166700552Y-92320803D01*
X166700552Y-92320803D02*
X167033885Y-92320803D01*
X167033885Y-92320803D02*
X167224361Y-92368422D01*
X167224361Y-92368422D02*
X167319600Y-92463660D01*
X167319600Y-92463660D02*
X167367219Y-92558898D01*
X167367219Y-92558898D02*
X167367219Y-92749374D01*
X167367219Y-92749374D02*
X167319600Y-92844612D01*
X167319600Y-92844612D02*
X167224361Y-92939850D01*
X167224361Y-92939850D02*
X167033885Y-92987469D01*
X167033885Y-92987469D02*
X166700552Y-92987469D01*
X166700552Y-92987469D02*
X166510076Y-92939850D01*
X166510076Y-92939850D02*
X166414838Y-92844612D01*
X166414838Y-92844612D02*
X166367219Y-92749374D01*
X166367219Y-91987469D02*
X167367219Y-91749374D01*
X167367219Y-91749374D02*
X166652933Y-91558898D01*
X166652933Y-91558898D02*
X167367219Y-91368422D01*
X167367219Y-91368422D02*
X166367219Y-91130327D01*
X166843409Y-90749374D02*
X166843409Y-90416041D01*
X167367219Y-90273184D02*
X167367219Y-90749374D01*
X167367219Y-90749374D02*
X166367219Y-90749374D01*
X166367219Y-90749374D02*
X166367219Y-90273184D01*
X167367219Y-89273184D02*
X166891028Y-89606517D01*
X167367219Y-89844612D02*
X166367219Y-89844612D01*
X166367219Y-89844612D02*
X166367219Y-89463660D01*
X166367219Y-89463660D02*
X166414838Y-89368422D01*
X166414838Y-89368422D02*
X166462457Y-89320803D01*
X166462457Y-89320803D02*
X166557695Y-89273184D01*
X166557695Y-89273184D02*
X166700552Y-89273184D01*
X166700552Y-89273184D02*
X166795790Y-89320803D01*
X166795790Y-89320803D02*
X166843409Y-89368422D01*
X166843409Y-89368422D02*
X166891028Y-89463660D01*
X166891028Y-89463660D02*
X166891028Y-89844612D01*
X167367219Y-88082707D02*
X166367219Y-88082707D01*
X167367219Y-87606517D02*
X166367219Y-87606517D01*
X166367219Y-87606517D02*
X167367219Y-87035089D01*
X167367219Y-87035089D02*
X166367219Y-87035089D01*
X166367219Y-86273184D02*
X167081504Y-86273184D01*
X167081504Y-86273184D02*
X167224361Y-86320803D01*
X167224361Y-86320803D02*
X167319600Y-86416041D01*
X167319600Y-86416041D02*
X167367219Y-86558898D01*
X167367219Y-86558898D02*
X167367219Y-86654136D01*
X166843409Y-85796993D02*
X166843409Y-85463660D01*
X167367219Y-85320803D02*
X167367219Y-85796993D01*
X167367219Y-85796993D02*
X166367219Y-85796993D01*
X166367219Y-85796993D02*
X166367219Y-85320803D01*
X167271980Y-84320803D02*
X167319600Y-84368422D01*
X167319600Y-84368422D02*
X167367219Y-84511279D01*
X167367219Y-84511279D02*
X167367219Y-84606517D01*
X167367219Y-84606517D02*
X167319600Y-84749374D01*
X167319600Y-84749374D02*
X167224361Y-84844612D01*
X167224361Y-84844612D02*
X167129123Y-84892231D01*
X167129123Y-84892231D02*
X166938647Y-84939850D01*
X166938647Y-84939850D02*
X166795790Y-84939850D01*
X166795790Y-84939850D02*
X166605314Y-84892231D01*
X166605314Y-84892231D02*
X166510076Y-84844612D01*
X166510076Y-84844612D02*
X166414838Y-84749374D01*
X166414838Y-84749374D02*
X166367219Y-84606517D01*
X166367219Y-84606517D02*
X166367219Y-84511279D01*
X166367219Y-84511279D02*
X166414838Y-84368422D01*
X166414838Y-84368422D02*
X166462457Y-84320803D01*
X166367219Y-84035088D02*
X166367219Y-83463660D01*
X167367219Y-83749374D02*
X166367219Y-83749374D01*
X166367219Y-82939850D02*
X166367219Y-82749374D01*
X166367219Y-82749374D02*
X166414838Y-82654136D01*
X166414838Y-82654136D02*
X166510076Y-82558898D01*
X166510076Y-82558898D02*
X166700552Y-82511279D01*
X166700552Y-82511279D02*
X167033885Y-82511279D01*
X167033885Y-82511279D02*
X167224361Y-82558898D01*
X167224361Y-82558898D02*
X167319600Y-82654136D01*
X167319600Y-82654136D02*
X167367219Y-82749374D01*
X167367219Y-82749374D02*
X167367219Y-82939850D01*
X167367219Y-82939850D02*
X167319600Y-83035088D01*
X167319600Y-83035088D02*
X167224361Y-83130326D01*
X167224361Y-83130326D02*
X167033885Y-83177945D01*
X167033885Y-83177945D02*
X166700552Y-83177945D01*
X166700552Y-83177945D02*
X166510076Y-83130326D01*
X166510076Y-83130326D02*
X166414838Y-83035088D01*
X166414838Y-83035088D02*
X166367219Y-82939850D01*
X167367219Y-81511279D02*
X166891028Y-81844612D01*
X167367219Y-82082707D02*
X166367219Y-82082707D01*
X166367219Y-82082707D02*
X166367219Y-81701755D01*
X166367219Y-81701755D02*
X166414838Y-81606517D01*
X166414838Y-81606517D02*
X166462457Y-81558898D01*
X166462457Y-81558898D02*
X166557695Y-81511279D01*
X166557695Y-81511279D02*
X166700552Y-81511279D01*
X166700552Y-81511279D02*
X166795790Y-81558898D01*
X166795790Y-81558898D02*
X166843409Y-81606517D01*
X166843409Y-81606517D02*
X166891028Y-81701755D01*
X166891028Y-81701755D02*
X166891028Y-82082707D01*
D10*
X135383390Y-90999999D02*
X135335771Y-91095237D01*
X135335771Y-91095237D02*
X135288152Y-91142856D01*
X135288152Y-91142856D02*
X135192914Y-91190475D01*
X135192914Y-91190475D02*
X135145295Y-91190475D01*
X135145295Y-91190475D02*
X135050057Y-91142856D01*
X135050057Y-91142856D02*
X135002438Y-91095237D01*
X135002438Y-91095237D02*
X134954819Y-90999999D01*
X134954819Y-90999999D02*
X134954819Y-90809523D01*
X134954819Y-90809523D02*
X135002438Y-90714285D01*
X135002438Y-90714285D02*
X135050057Y-90666666D01*
X135050057Y-90666666D02*
X135145295Y-90619047D01*
X135145295Y-90619047D02*
X135192914Y-90619047D01*
X135192914Y-90619047D02*
X135288152Y-90666666D01*
X135288152Y-90666666D02*
X135335771Y-90714285D01*
X135335771Y-90714285D02*
X135383390Y-90809523D01*
X135383390Y-90809523D02*
X135383390Y-90999999D01*
X135383390Y-90999999D02*
X135431009Y-91095237D01*
X135431009Y-91095237D02*
X135478628Y-91142856D01*
X135478628Y-91142856D02*
X135573866Y-91190475D01*
X135573866Y-91190475D02*
X135764342Y-91190475D01*
X135764342Y-91190475D02*
X135859580Y-91142856D01*
X135859580Y-91142856D02*
X135907200Y-91095237D01*
X135907200Y-91095237D02*
X135954819Y-90999999D01*
X135954819Y-90999999D02*
X135954819Y-90809523D01*
X135954819Y-90809523D02*
X135907200Y-90714285D01*
X135907200Y-90714285D02*
X135859580Y-90666666D01*
X135859580Y-90666666D02*
X135764342Y-90619047D01*
X135764342Y-90619047D02*
X135573866Y-90619047D01*
X135573866Y-90619047D02*
X135478628Y-90666666D01*
X135478628Y-90666666D02*
X135431009Y-90714285D01*
X135431009Y-90714285D02*
X135383390Y-90809523D01*
X134907200Y-89476190D02*
X136192914Y-90333332D01*
X134954819Y-89238094D02*
X134954819Y-88619047D01*
X134954819Y-88619047D02*
X135335771Y-88952380D01*
X135335771Y-88952380D02*
X135335771Y-88809523D01*
X135335771Y-88809523D02*
X135383390Y-88714285D01*
X135383390Y-88714285D02*
X135431009Y-88666666D01*
X135431009Y-88666666D02*
X135526247Y-88619047D01*
X135526247Y-88619047D02*
X135764342Y-88619047D01*
X135764342Y-88619047D02*
X135859580Y-88666666D01*
X135859580Y-88666666D02*
X135907200Y-88714285D01*
X135907200Y-88714285D02*
X135954819Y-88809523D01*
X135954819Y-88809523D02*
X135954819Y-89095237D01*
X135954819Y-89095237D02*
X135907200Y-89190475D01*
X135907200Y-89190475D02*
X135859580Y-89238094D01*
X134954819Y-87761904D02*
X134954819Y-87952380D01*
X134954819Y-87952380D02*
X135002438Y-88047618D01*
X135002438Y-88047618D02*
X135050057Y-88095237D01*
X135050057Y-88095237D02*
X135192914Y-88190475D01*
X135192914Y-88190475D02*
X135383390Y-88238094D01*
X135383390Y-88238094D02*
X135764342Y-88238094D01*
X135764342Y-88238094D02*
X135859580Y-88190475D01*
X135859580Y-88190475D02*
X135907200Y-88142856D01*
X135907200Y-88142856D02*
X135954819Y-88047618D01*
X135954819Y-88047618D02*
X135954819Y-87857142D01*
X135954819Y-87857142D02*
X135907200Y-87761904D01*
X135907200Y-87761904D02*
X135859580Y-87714285D01*
X135859580Y-87714285D02*
X135764342Y-87666666D01*
X135764342Y-87666666D02*
X135526247Y-87666666D01*
X135526247Y-87666666D02*
X135431009Y-87714285D01*
X135431009Y-87714285D02*
X135383390Y-87761904D01*
X135383390Y-87761904D02*
X135335771Y-87857142D01*
X135335771Y-87857142D02*
X135335771Y-88047618D01*
X135335771Y-88047618D02*
X135383390Y-88142856D01*
X135383390Y-88142856D02*
X135431009Y-88190475D01*
X135431009Y-88190475D02*
X135526247Y-88238094D01*
X134954819Y-87380951D02*
X135954819Y-87047618D01*
X135954819Y-87047618D02*
X134954819Y-86714285D01*
X151666667Y-95407200D02*
X151809524Y-95454819D01*
X151809524Y-95454819D02*
X152047619Y-95454819D01*
X152047619Y-95454819D02*
X152142857Y-95407200D01*
X152142857Y-95407200D02*
X152190476Y-95359580D01*
X152190476Y-95359580D02*
X152238095Y-95264342D01*
X152238095Y-95264342D02*
X152238095Y-95169104D01*
X152238095Y-95169104D02*
X152190476Y-95073866D01*
X152190476Y-95073866D02*
X152142857Y-95026247D01*
X152142857Y-95026247D02*
X152047619Y-94978628D01*
X152047619Y-94978628D02*
X151857143Y-94931009D01*
X151857143Y-94931009D02*
X151761905Y-94883390D01*
X151761905Y-94883390D02*
X151714286Y-94835771D01*
X151714286Y-94835771D02*
X151666667Y-94740533D01*
X151666667Y-94740533D02*
X151666667Y-94645295D01*
X151666667Y-94645295D02*
X151714286Y-94550057D01*
X151714286Y-94550057D02*
X151761905Y-94502438D01*
X151761905Y-94502438D02*
X151857143Y-94454819D01*
X151857143Y-94454819D02*
X152095238Y-94454819D01*
X152095238Y-94454819D02*
X152238095Y-94502438D01*
X152666667Y-95454819D02*
X152666667Y-94454819D01*
X152666667Y-94454819D02*
X153047619Y-94454819D01*
X153047619Y-94454819D02*
X153142857Y-94502438D01*
X153142857Y-94502438D02*
X153190476Y-94550057D01*
X153190476Y-94550057D02*
X153238095Y-94645295D01*
X153238095Y-94645295D02*
X153238095Y-94788152D01*
X153238095Y-94788152D02*
X153190476Y-94883390D01*
X153190476Y-94883390D02*
X153142857Y-94931009D01*
X153142857Y-94931009D02*
X153047619Y-94978628D01*
X153047619Y-94978628D02*
X152666667Y-94978628D01*
X153666667Y-95454819D02*
X153666667Y-94454819D01*
X155095238Y-94454819D02*
X155285714Y-94454819D01*
X155285714Y-94454819D02*
X155380952Y-94502438D01*
X155380952Y-94502438D02*
X155476190Y-94597676D01*
X155476190Y-94597676D02*
X155523809Y-94788152D01*
X155523809Y-94788152D02*
X155523809Y-95121485D01*
X155523809Y-95121485D02*
X155476190Y-95311961D01*
X155476190Y-95311961D02*
X155380952Y-95407200D01*
X155380952Y-95407200D02*
X155285714Y-95454819D01*
X155285714Y-95454819D02*
X155095238Y-95454819D01*
X155095238Y-95454819D02*
X155000000Y-95407200D01*
X155000000Y-95407200D02*
X154904762Y-95311961D01*
X154904762Y-95311961D02*
X154857143Y-95121485D01*
X154857143Y-95121485D02*
X154857143Y-94788152D01*
X154857143Y-94788152D02*
X154904762Y-94597676D01*
X154904762Y-94597676D02*
X155000000Y-94502438D01*
X155000000Y-94502438D02*
X155095238Y-94454819D01*
X155952381Y-94454819D02*
X155952381Y-95264342D01*
X155952381Y-95264342D02*
X156000000Y-95359580D01*
X156000000Y-95359580D02*
X156047619Y-95407200D01*
X156047619Y-95407200D02*
X156142857Y-95454819D01*
X156142857Y-95454819D02*
X156333333Y-95454819D01*
X156333333Y-95454819D02*
X156428571Y-95407200D01*
X156428571Y-95407200D02*
X156476190Y-95359580D01*
X156476190Y-95359580D02*
X156523809Y-95264342D01*
X156523809Y-95264342D02*
X156523809Y-94454819D01*
X156857143Y-94454819D02*
X157428571Y-94454819D01*
X157142857Y-95454819D02*
X157142857Y-94454819D01*
X136666666Y-80954819D02*
X136666666Y-81669104D01*
X136666666Y-81669104D02*
X136619047Y-81811961D01*
X136619047Y-81811961D02*
X136523809Y-81907200D01*
X136523809Y-81907200D02*
X136380952Y-81954819D01*
X136380952Y-81954819D02*
X136285714Y-81954819D01*
X137142857Y-81954819D02*
X137142857Y-80954819D01*
X137142857Y-80954819D02*
X137523809Y-80954819D01*
X137523809Y-80954819D02*
X137619047Y-81002438D01*
X137619047Y-81002438D02*
X137666666Y-81050057D01*
X137666666Y-81050057D02*
X137714285Y-81145295D01*
X137714285Y-81145295D02*
X137714285Y-81288152D01*
X137714285Y-81288152D02*
X137666666Y-81383390D01*
X137666666Y-81383390D02*
X137619047Y-81431009D01*
X137619047Y-81431009D02*
X137523809Y-81478628D01*
X137523809Y-81478628D02*
X137142857Y-81478628D01*
X138666666Y-81954819D02*
X138095238Y-81954819D01*
X138380952Y-81954819D02*
X138380952Y-80954819D01*
X138380952Y-80954819D02*
X138285714Y-81097676D01*
X138285714Y-81097676D02*
X138190476Y-81192914D01*
X138190476Y-81192914D02*
X138095238Y-81240533D01*
X157333334Y-83907200D02*
X157476191Y-83954819D01*
X157476191Y-83954819D02*
X157714286Y-83954819D01*
X157714286Y-83954819D02*
X157809524Y-83907200D01*
X157809524Y-83907200D02*
X157857143Y-83859580D01*
X157857143Y-83859580D02*
X157904762Y-83764342D01*
X157904762Y-83764342D02*
X157904762Y-83669104D01*
X157904762Y-83669104D02*
X157857143Y-83573866D01*
X157857143Y-83573866D02*
X157809524Y-83526247D01*
X157809524Y-83526247D02*
X157714286Y-83478628D01*
X157714286Y-83478628D02*
X157523810Y-83431009D01*
X157523810Y-83431009D02*
X157428572Y-83383390D01*
X157428572Y-83383390D02*
X157380953Y-83335771D01*
X157380953Y-83335771D02*
X157333334Y-83240533D01*
X157333334Y-83240533D02*
X157333334Y-83145295D01*
X157333334Y-83145295D02*
X157380953Y-83050057D01*
X157380953Y-83050057D02*
X157428572Y-83002438D01*
X157428572Y-83002438D02*
X157523810Y-82954819D01*
X157523810Y-82954819D02*
X157761905Y-82954819D01*
X157761905Y-82954819D02*
X157904762Y-83002438D01*
X158333334Y-83954819D02*
X158333334Y-82954819D01*
X158333334Y-82954819D02*
X158714286Y-82954819D01*
X158714286Y-82954819D02*
X158809524Y-83002438D01*
X158809524Y-83002438D02*
X158857143Y-83050057D01*
X158857143Y-83050057D02*
X158904762Y-83145295D01*
X158904762Y-83145295D02*
X158904762Y-83288152D01*
X158904762Y-83288152D02*
X158857143Y-83383390D01*
X158857143Y-83383390D02*
X158809524Y-83431009D01*
X158809524Y-83431009D02*
X158714286Y-83478628D01*
X158714286Y-83478628D02*
X158333334Y-83478628D01*
X159333334Y-83954819D02*
X159333334Y-82954819D01*
X160571429Y-83954819D02*
X160571429Y-82954819D01*
X161047619Y-83954819D02*
X161047619Y-82954819D01*
X161047619Y-82954819D02*
X161619047Y-83954819D01*
X161619047Y-83954819D02*
X161619047Y-82954819D01*
X146883390Y-101309523D02*
X146835771Y-101404761D01*
X146835771Y-101404761D02*
X146788152Y-101452380D01*
X146788152Y-101452380D02*
X146692914Y-101499999D01*
X146692914Y-101499999D02*
X146645295Y-101499999D01*
X146645295Y-101499999D02*
X146550057Y-101452380D01*
X146550057Y-101452380D02*
X146502438Y-101404761D01*
X146502438Y-101404761D02*
X146454819Y-101309523D01*
X146454819Y-101309523D02*
X146454819Y-101119047D01*
X146454819Y-101119047D02*
X146502438Y-101023809D01*
X146502438Y-101023809D02*
X146550057Y-100976190D01*
X146550057Y-100976190D02*
X146645295Y-100928571D01*
X146645295Y-100928571D02*
X146692914Y-100928571D01*
X146692914Y-100928571D02*
X146788152Y-100976190D01*
X146788152Y-100976190D02*
X146835771Y-101023809D01*
X146835771Y-101023809D02*
X146883390Y-101119047D01*
X146883390Y-101119047D02*
X146883390Y-101309523D01*
X146883390Y-101309523D02*
X146931009Y-101404761D01*
X146931009Y-101404761D02*
X146978628Y-101452380D01*
X146978628Y-101452380D02*
X147073866Y-101499999D01*
X147073866Y-101499999D02*
X147264342Y-101499999D01*
X147264342Y-101499999D02*
X147359580Y-101452380D01*
X147359580Y-101452380D02*
X147407200Y-101404761D01*
X147407200Y-101404761D02*
X147454819Y-101309523D01*
X147454819Y-101309523D02*
X147454819Y-101119047D01*
X147454819Y-101119047D02*
X147407200Y-101023809D01*
X147407200Y-101023809D02*
X147359580Y-100976190D01*
X147359580Y-100976190D02*
X147264342Y-100928571D01*
X147264342Y-100928571D02*
X147073866Y-100928571D01*
X147073866Y-100928571D02*
X146978628Y-100976190D01*
X146978628Y-100976190D02*
X146931009Y-101023809D01*
X146931009Y-101023809D02*
X146883390Y-101119047D01*
X146407200Y-99785714D02*
X147692914Y-100642856D01*
X146454819Y-99547618D02*
X146454819Y-98928571D01*
X146454819Y-98928571D02*
X146835771Y-99261904D01*
X146835771Y-99261904D02*
X146835771Y-99119047D01*
X146835771Y-99119047D02*
X146883390Y-99023809D01*
X146883390Y-99023809D02*
X146931009Y-98976190D01*
X146931009Y-98976190D02*
X147026247Y-98928571D01*
X147026247Y-98928571D02*
X147264342Y-98928571D01*
X147264342Y-98928571D02*
X147359580Y-98976190D01*
X147359580Y-98976190D02*
X147407200Y-99023809D01*
X147407200Y-99023809D02*
X147454819Y-99119047D01*
X147454819Y-99119047D02*
X147454819Y-99404761D01*
X147454819Y-99404761D02*
X147407200Y-99499999D01*
X147407200Y-99499999D02*
X147359580Y-99547618D01*
X146454819Y-98071428D02*
X146454819Y-98261904D01*
X146454819Y-98261904D02*
X146502438Y-98357142D01*
X146502438Y-98357142D02*
X146550057Y-98404761D01*
X146550057Y-98404761D02*
X146692914Y-98499999D01*
X146692914Y-98499999D02*
X146883390Y-98547618D01*
X146883390Y-98547618D02*
X147264342Y-98547618D01*
X147264342Y-98547618D02*
X147359580Y-98499999D01*
X147359580Y-98499999D02*
X147407200Y-98452380D01*
X147407200Y-98452380D02*
X147454819Y-98357142D01*
X147454819Y-98357142D02*
X147454819Y-98166666D01*
X147454819Y-98166666D02*
X147407200Y-98071428D01*
X147407200Y-98071428D02*
X147359580Y-98023809D01*
X147359580Y-98023809D02*
X147264342Y-97976190D01*
X147264342Y-97976190D02*
X147026247Y-97976190D01*
X147026247Y-97976190D02*
X146931009Y-98023809D01*
X146931009Y-98023809D02*
X146883390Y-98071428D01*
X146883390Y-98071428D02*
X146835771Y-98166666D01*
X146835771Y-98166666D02*
X146835771Y-98357142D01*
X146835771Y-98357142D02*
X146883390Y-98452380D01*
X146883390Y-98452380D02*
X146931009Y-98499999D01*
X146931009Y-98499999D02*
X147026247Y-98547618D01*
X146454819Y-97690475D02*
X147454819Y-97357142D01*
X147454819Y-97357142D02*
X146454819Y-97023809D01*
X147073866Y-96690475D02*
X147073866Y-95928571D01*
X146454819Y-94976190D02*
X146454819Y-95452380D01*
X146454819Y-95452380D02*
X146931009Y-95499999D01*
X146931009Y-95499999D02*
X146883390Y-95452380D01*
X146883390Y-95452380D02*
X146835771Y-95357142D01*
X146835771Y-95357142D02*
X146835771Y-95119047D01*
X146835771Y-95119047D02*
X146883390Y-95023809D01*
X146883390Y-95023809D02*
X146931009Y-94976190D01*
X146931009Y-94976190D02*
X147026247Y-94928571D01*
X147026247Y-94928571D02*
X147264342Y-94928571D01*
X147264342Y-94928571D02*
X147359580Y-94976190D01*
X147359580Y-94976190D02*
X147407200Y-95023809D01*
X147407200Y-95023809D02*
X147454819Y-95119047D01*
X147454819Y-95119047D02*
X147454819Y-95357142D01*
X147454819Y-95357142D02*
X147407200Y-95452380D01*
X147407200Y-95452380D02*
X147359580Y-95499999D01*
X146454819Y-94642856D02*
X147454819Y-94309523D01*
X147454819Y-94309523D02*
X146454819Y-93976190D01*
X147550057Y-93880952D02*
X147550057Y-93119047D01*
X146550057Y-92928570D02*
X146502438Y-92880951D01*
X146502438Y-92880951D02*
X146454819Y-92785713D01*
X146454819Y-92785713D02*
X146454819Y-92547618D01*
X146454819Y-92547618D02*
X146502438Y-92452380D01*
X146502438Y-92452380D02*
X146550057Y-92404761D01*
X146550057Y-92404761D02*
X146645295Y-92357142D01*
X146645295Y-92357142D02*
X146740533Y-92357142D01*
X146740533Y-92357142D02*
X146883390Y-92404761D01*
X146883390Y-92404761D02*
X147454819Y-92976189D01*
X147454819Y-92976189D02*
X147454819Y-92357142D01*
X147169104Y-91976189D02*
X147169104Y-91499999D01*
X147454819Y-92071427D02*
X146454819Y-91738094D01*
X146454819Y-91738094D02*
X147454819Y-91404761D01*
X138931009Y-96595238D02*
X138931009Y-96928571D01*
X139454819Y-96928571D02*
X138454819Y-96928571D01*
X138454819Y-96928571D02*
X138454819Y-96452381D01*
X138454819Y-96071428D02*
X139264342Y-96071428D01*
X139264342Y-96071428D02*
X139359580Y-96023809D01*
X139359580Y-96023809D02*
X139407200Y-95976190D01*
X139407200Y-95976190D02*
X139454819Y-95880952D01*
X139454819Y-95880952D02*
X139454819Y-95690476D01*
X139454819Y-95690476D02*
X139407200Y-95595238D01*
X139407200Y-95595238D02*
X139359580Y-95547619D01*
X139359580Y-95547619D02*
X139264342Y-95500000D01*
X139264342Y-95500000D02*
X138454819Y-95500000D01*
X139407200Y-95071428D02*
X139454819Y-94928571D01*
X139454819Y-94928571D02*
X139454819Y-94690476D01*
X139454819Y-94690476D02*
X139407200Y-94595238D01*
X139407200Y-94595238D02*
X139359580Y-94547619D01*
X139359580Y-94547619D02*
X139264342Y-94500000D01*
X139264342Y-94500000D02*
X139169104Y-94500000D01*
X139169104Y-94500000D02*
X139073866Y-94547619D01*
X139073866Y-94547619D02*
X139026247Y-94595238D01*
X139026247Y-94595238D02*
X138978628Y-94690476D01*
X138978628Y-94690476D02*
X138931009Y-94880952D01*
X138931009Y-94880952D02*
X138883390Y-94976190D01*
X138883390Y-94976190D02*
X138835771Y-95023809D01*
X138835771Y-95023809D02*
X138740533Y-95071428D01*
X138740533Y-95071428D02*
X138645295Y-95071428D01*
X138645295Y-95071428D02*
X138550057Y-95023809D01*
X138550057Y-95023809D02*
X138502438Y-94976190D01*
X138502438Y-94976190D02*
X138454819Y-94880952D01*
X138454819Y-94880952D02*
X138454819Y-94642857D01*
X138454819Y-94642857D02*
X138502438Y-94500000D01*
X138931009Y-94071428D02*
X138931009Y-93738095D01*
X139454819Y-93595238D02*
X139454819Y-94071428D01*
X139454819Y-94071428D02*
X138454819Y-94071428D01*
X138454819Y-94071428D02*
X138454819Y-93595238D01*
X139550057Y-93404762D02*
X139550057Y-92642857D01*
X138550057Y-92452380D02*
X138502438Y-92404761D01*
X138502438Y-92404761D02*
X138454819Y-92309523D01*
X138454819Y-92309523D02*
X138454819Y-92071428D01*
X138454819Y-92071428D02*
X138502438Y-91976190D01*
X138502438Y-91976190D02*
X138550057Y-91928571D01*
X138550057Y-91928571D02*
X138645295Y-91880952D01*
X138645295Y-91880952D02*
X138740533Y-91880952D01*
X138740533Y-91880952D02*
X138883390Y-91928571D01*
X138883390Y-91928571D02*
X139454819Y-92499999D01*
X139454819Y-92499999D02*
X139454819Y-91880952D01*
X139169104Y-91499999D02*
X139169104Y-91023809D01*
X139454819Y-91595237D02*
X138454819Y-91261904D01*
X138454819Y-91261904D02*
X139454819Y-90928571D01*
X143047619Y-87954819D02*
X143047619Y-86954819D01*
X143047619Y-86954819D02*
X143428571Y-86954819D01*
X143428571Y-86954819D02*
X143523809Y-87002438D01*
X143523809Y-87002438D02*
X143571428Y-87050057D01*
X143571428Y-87050057D02*
X143619047Y-87145295D01*
X143619047Y-87145295D02*
X143619047Y-87288152D01*
X143619047Y-87288152D02*
X143571428Y-87383390D01*
X143571428Y-87383390D02*
X143523809Y-87431009D01*
X143523809Y-87431009D02*
X143428571Y-87478628D01*
X143428571Y-87478628D02*
X143047619Y-87478628D01*
X144238095Y-86954819D02*
X144428571Y-86954819D01*
X144428571Y-86954819D02*
X144523809Y-87002438D01*
X144523809Y-87002438D02*
X144619047Y-87097676D01*
X144619047Y-87097676D02*
X144666666Y-87288152D01*
X144666666Y-87288152D02*
X144666666Y-87621485D01*
X144666666Y-87621485D02*
X144619047Y-87811961D01*
X144619047Y-87811961D02*
X144523809Y-87907200D01*
X144523809Y-87907200D02*
X144428571Y-87954819D01*
X144428571Y-87954819D02*
X144238095Y-87954819D01*
X144238095Y-87954819D02*
X144142857Y-87907200D01*
X144142857Y-87907200D02*
X144047619Y-87811961D01*
X144047619Y-87811961D02*
X144000000Y-87621485D01*
X144000000Y-87621485D02*
X144000000Y-87288152D01*
X144000000Y-87288152D02*
X144047619Y-87097676D01*
X144047619Y-87097676D02*
X144142857Y-87002438D01*
X144142857Y-87002438D02*
X144238095Y-86954819D01*
X145000000Y-86954819D02*
X145238095Y-87954819D01*
X145238095Y-87954819D02*
X145428571Y-87240533D01*
X145428571Y-87240533D02*
X145619047Y-87954819D01*
X145619047Y-87954819D02*
X145857143Y-86954819D01*
X146238095Y-87431009D02*
X146571428Y-87431009D01*
X146714285Y-87954819D02*
X146238095Y-87954819D01*
X146238095Y-87954819D02*
X146238095Y-86954819D01*
X146238095Y-86954819D02*
X146714285Y-86954819D01*
X147714285Y-87954819D02*
X147380952Y-87478628D01*
X147142857Y-87954819D02*
X147142857Y-86954819D01*
X147142857Y-86954819D02*
X147523809Y-86954819D01*
X147523809Y-86954819D02*
X147619047Y-87002438D01*
X147619047Y-87002438D02*
X147666666Y-87050057D01*
X147666666Y-87050057D02*
X147714285Y-87145295D01*
X147714285Y-87145295D02*
X147714285Y-87288152D01*
X147714285Y-87288152D02*
X147666666Y-87383390D01*
X147666666Y-87383390D02*
X147619047Y-87431009D01*
X147619047Y-87431009D02*
X147523809Y-87478628D01*
X147523809Y-87478628D02*
X147142857Y-87478628D01*
X148904762Y-87954819D02*
X148904762Y-86954819D01*
X149380952Y-87954819D02*
X149380952Y-86954819D01*
X149380952Y-86954819D02*
X149952380Y-87954819D01*
X149952380Y-87954819D02*
X149952380Y-86954819D01*
D13*
%TO.C,JP1*%
X136120000Y-87810000D02*
X136120000Y-82620000D01*
X138880000Y-82620000D02*
X136120000Y-82620000D01*
X138880000Y-87810000D02*
X136120000Y-87810000D01*
X138880000Y-87810000D02*
X138880000Y-82620000D01*
X138880000Y-89080000D02*
X138880000Y-90460000D01*
X138880000Y-90460000D02*
X137500000Y-90460000D01*
%TO.C,SPI IN*%
X163610000Y-81485000D02*
X162560000Y-81485000D01*
X163610000Y-78785000D02*
X163610000Y-81485000D01*
X163610000Y-76465000D02*
X163610000Y-75915000D01*
X163610000Y-75915000D02*
X155390000Y-75915000D01*
X162560000Y-81485000D02*
X162560000Y-82275000D01*
X155390000Y-81485000D02*
X156440000Y-81485000D01*
X155390000Y-78785000D02*
X155390000Y-81485000D01*
X155390000Y-75915000D02*
X155390000Y-76465000D01*
%TO.C,8/36V-5V_2A*%
X148852500Y-102267500D02*
X148852500Y-90647500D01*
X141232500Y-102507500D02*
X139992500Y-102507500D01*
X140232500Y-102267500D02*
X148852500Y-102267500D01*
X140232500Y-102267500D02*
X140232500Y-90647500D01*
X140232500Y-90647500D02*
X148852500Y-90647500D01*
X139992500Y-102507500D02*
X139992500Y-101267500D01*
%TO.C,FUSE_2A*%
X138010000Y-93828733D02*
X138010000Y-94171267D01*
X136990000Y-93828733D02*
X136990000Y-94171267D01*
%TO.C,POWER IN*%
X140690000Y-75635000D02*
X140690000Y-87355000D01*
X140690000Y-87355000D02*
X142110000Y-87355000D01*
X142110000Y-82855000D02*
X147000000Y-82855000D01*
X142110000Y-87355000D02*
X142110000Y-82855000D01*
X143000000Y-76245000D02*
X143000000Y-81745000D01*
X143000000Y-81745000D02*
X143500000Y-81745000D01*
X143500000Y-76245000D02*
X143000000Y-76245000D01*
X143500000Y-81745000D02*
X143500000Y-76245000D01*
X145500000Y-76245000D02*
X145500000Y-81745000D01*
X145500000Y-81745000D02*
X146000000Y-81745000D01*
X146000000Y-76245000D02*
X145500000Y-76245000D01*
X146000000Y-81745000D02*
X146000000Y-76245000D01*
X147000000Y-75635000D02*
X140690000Y-75635000D01*
X147000000Y-75635000D02*
X153310000Y-75635000D01*
X148000000Y-76245000D02*
X148000000Y-81745000D01*
X148000000Y-81745000D02*
X148500000Y-81745000D01*
X148500000Y-76245000D02*
X148000000Y-76245000D01*
X148500000Y-81745000D02*
X148500000Y-76245000D01*
X150450000Y-87045000D02*
X150750000Y-86445000D01*
X150500000Y-76245000D02*
X150500000Y-81745000D01*
X150500000Y-81745000D02*
X151000000Y-81745000D01*
X150750000Y-86445000D02*
X151050000Y-87045000D01*
X151000000Y-76245000D02*
X150500000Y-76245000D01*
X151000000Y-81745000D02*
X151000000Y-76245000D01*
X151050000Y-87045000D02*
X150450000Y-87045000D01*
X151890000Y-82855000D02*
X147000000Y-82855000D01*
X151890000Y-87355000D02*
X151890000Y-82855000D01*
X153310000Y-75635000D02*
X153310000Y-87355000D01*
X153310000Y-87355000D02*
X151890000Y-87355000D01*
%TO.C,REF\u002A\u002A*%
X150390000Y-97015000D02*
X151440000Y-97015000D01*
X150390000Y-99715000D02*
X150390000Y-97015000D01*
X150390000Y-102035000D02*
X150390000Y-102585000D01*
X150390000Y-102585000D02*
X158610000Y-102585000D01*
X151440000Y-97015000D02*
X151440000Y-96225000D01*
X158610000Y-97015000D02*
X157560000Y-97015000D01*
X158610000Y-99715000D02*
X158610000Y-97015000D01*
X158610000Y-102585000D02*
X158610000Y-102035000D01*
%TD*%
M02*
